<svg xmlns="http://www.w3.org/2000/svg" xml:space="preserve" viewBox="0 0 512 496"><path fill="#fff" d="M121.626 311.71c15.199-35.022 30.253-69.693 45.327-104.356 7.304-16.796 14.738-33.536 21.9-50.392 1.598-3.76 3.68-5.285 7.867-5.155 9.989.31 19.995.243 29.988.06 3.554-.066 5.366 1.098 6.527 4.56 19.316 57.586 38.736 115.137 58.168 172.685 2.021 5.986 3.893 12.064 6.48 17.809 4.827 10.722 13.633 16.156 25.202 16.77 11.803.625 23.625.481 35.448.024 5.858-.226 11.761.551 17.608.223 2.786-.156 5.559-.313 8.357-.343 2.209-.023 3.921-.879 2.381-3.772 2.711-.214 3.801.915 4.545 3.038l.944-5.814c-13.165-2.095-26.285.756-39.201-1.804 15.043-2.55 30.505.384 45.5-3.527.266-1.303.575-2.42.712-3.557.777-6.428.05-7.115-6.42-7.17-16.484-.136-33.032 1.174-49.44-.574-23.45-2.498-38.213-17.945-38.495-41.483-.566-47.48-.18-94.973-.266-142.46-.006-3.562 1.54-4.633 4.84-4.592 8.664.106 17.329.023 25.993.027 6.699.003 6.721.01 6.722 6.571.007 38.49.004 76.98.003 115.47 0 16.83-.006 33.659.002 50.488.003 6.696.343 7.173 7.018 7.205 17.495.084 34.993.192 52.485-.065 4.99-.073 6.76 1.365 6.579 6.491-.355 9.985-.219 19.993-.035 29.988.07 3.77-1.02 5.354-5.061 5.34-36.657-.123-73.318.207-109.97-.257-13.676-.174-24.325-6.82-29.783-19.88-5.455-13.055-10.544-26.27-15.474-39.533-1.29-3.468-3.095-4.463-6.596-4.444-23.993.128-47.988.154-71.98-.008-3.79-.025-5.577 1.313-6.993 4.737-5.345 12.922-10.963 25.732-16.552 38.551-5.17 11.857-14.537 18.646-27.055 20.32-7.327.98-14.893.178-23.678.178 8.98-20.855 17.624-40.924 26.403-61.348m131.554-22.14c.009 4.097-.977 8.515.223 12.228 3.06 9.471 6.808 18.755 10.838 27.868 2.826 6.39 3.06 14.16 9.454 18.796.408.296.511 1.223.5 1.852-.079 4.806 4.162 6.01 7.023 8.527-.286-2.559-1.051-4.854-1.974-7.083-5.387-13.018-10.876-25.987-15.95-39.14-3.081-7.984-5.398-16.395-10.33-24.398l-6.799-19.186c2.322.218 2.544 1.523 2.956 2.537a6274 6274 0 0 1 13.446 33.353c7.093 17.775 14.431 35.445 22.413 52.84.956 2.085 1.67 4.765 4.88 4.846.29-5.501 3.627-11.885-5.869-13.835 3.786-3.583 1.576-7.256.434-10.768-2.728-8.387-5.458-16.8-9.697-24.592-4.611-8.476-4.927-18.14-7.657-27.118-3.486-11.463-7.621-22.728-11.454-34.086-9.211-27.294-18.402-54.595-27.631-81.883-.505-1.493-.533-3.503-2.697-3.775-3.613-.454-1.653-3.115-1.775-4.882-1.68-.192-3.145-.611-4.51.39.174 4.098 3.474 7.57 2.674 12.916-2.572-3.03-2.7-5.96-3.892-8.392-.732-1.494-1.21-3.148-2.713-4.09-5.657-3.55-18.271.251-20.994 6.4-4.243 9.582-8.374 19.214-12.572 28.817-6.93 15.854-13.877 31.701-20.781 47.47.68 1.083 1.524-.819 2.135.382-.159 1.774-1.044 2.782-2.879 3.472-1.831.689-3.158 3.54-2.308 4.344 1.897 1.796.635 3.07.11 4.354-2.082 5.083-4.745 9.958-6.465 15.15-2.27 6.856-7.485 11.917-10.428 18.215-5.918 12.665-11.138 25.657-16.606 38.531-.823 1.94-2.488 3.608-.15 6.095 1.397 1.486-.902 4.954-1.788 5.04-6.1.59-4.734 5.715-6.007 9.149-.321.865-.114 1.84-.935 2.667-3.019 3.04-2.007 5.728 1.144 8.497 8.581-14.72 13.672-30.961 22.16-45.507-4.814 15.579-12.966 29.847-17.629 46.397 8.352-1.514 12.987-6.235 15.823-12.653 22.486-50.881 44.821-101.829 67.29-152.717 1.167-2.641 1.527-5.842 5.168-8.44l39.836 103.898c1.128-2.058 2.21-3.01 3.983-2.486m-63.675 10.41h52.705l-34.02-89.31-31.232 70.96 2.51-.692c.52 6.646-5.094 11.524-5.19 18.26 4.656 1.312 9.476.603 15.227.783m126.584 8.447c1.03 2.853 1.528 6.004 5.152 7.941 3.119-32.403 1.77-64.932 2.743-97.647 2.316.735 2.234 1.828 2.247 2.788.1 7.323.256 14.647.222 21.97-.114 24.642-.635 49.28.29 73.929.175 4.658.848 7.728 5.589 9.023.962-1.698.564-3.564.565-5.352.03-29.663.026-59.327.03-88.99.005-21.157.038-42.313-.024-63.47-.007-2.21.997-5.429-1.63-6.305-4.73-1.578-9.792-1.759-14.593.114-1.804.703-2.583 2.391-2.513 4.474.13 3.828.124 7.661.125 11.492.008 39.161-.015 78.323.04 117.484.006 3.972.15 7.986 1.757 12.549"/><path d="M223.152 180.026c-.232-1.51-1.49-2.635-.11-4.183 3.22 3.668 3.54 8.252 5.373 13.502-3.915-2.698-3.61-6.35-5.263-9.32"/></svg>